{"asset":{"version":"2.0","generator":"THREE.GLTFExporter"},"scenes":[{"nodes":[0],"name":"AuxScene"}],"scene":0,"nodes":[{"mesh":0}],"bufferViews":[{"buffer":0,"byteOffset":0,"byteLength":141948,"target":34962,"byteStride":12},{"buffer":0,"byteOffset":141948,"byteLength":141948,"target":34962,"byteStride":12}],"buffers":[{"byteLength":283896,"uri":"data:application/octet-stream;base64,"}],"accessors":[{"bufferView":0,"componentType":5126,"count":11829,"max":[100.61190795898438,26.595970153808594,100.61190795898438],"min":[-100.68809509277344,0.7959750294685364,-100.68809509277344],"type":"VEC3"},{"bufferView":1,"componentType":5126,"count":11829,"max":[0.9849168658256531,1,0.9577010273933411],"min":[-0.9634637236595154,0.10039475560188293,-0.9389907717704773],"type":"VEC3"}],"materials":[{"pbrMetallicRoughness":{"baseColorFactor":[0.5019607843137255,0.5019607843137255,0.5019607843137255,1],"metallicFactor":0,"roughnessFactor":1}}],"meshes":[{"primitives":[{"mode":4,"attributes":{"POSITION":0,"NORMAL":1},"material":0}]}]}